<svg width="80" height="81" viewBox="0 0 80 81" fill="none" xmlns="http://www.w3.org/2000/svg">
<path d="M40.0911 0.00012207H39.9089C17.8678 0.00012207 0 17.8732 0 39.9208V40.103C0 62.1506 17.8678 80.0237 39.9089 80.0237H40.0911C62.1322 80.0237 80 62.1506 80 40.103V39.9208C80 17.8732 62.1322 0.00012207 40.0911 0.00012207Z" fill="#FEFFEF"/>
<path d="M47.796 51.7157C37.5574 51.7157 29.2275 43.3805 29.2247 33.1389C29.2275 30.5428 31.3408 28.4316 33.9306 28.4316C34.1969 28.4316 34.4603 28.4541 34.7126 28.4989C35.2675 28.5914 35.7945 28.7793 36.2794 29.0625C36.3494 29.1045 36.3971 29.1718 36.4083 29.2503L37.4902 36.0715C37.5042 36.1528 37.4789 36.2313 37.4257 36.2902C36.8287 36.9518 36.0663 37.4284 35.2171 37.6667L34.8079 37.7817L34.962 38.177C36.3578 41.732 39.1999 44.572 42.7566 45.9739L43.1518 46.1309L43.2667 45.7215C43.5049 44.872 43.9814 44.1094 44.6429 43.5123C44.6905 43.4674 44.755 43.445 44.8194 43.445C44.8335 43.445 44.8475 43.445 44.8643 43.4478L51.6835 44.53C51.7648 44.544 51.832 44.5889 51.8741 44.659C52.1544 45.144 52.3421 45.6739 52.4374 46.229C52.4823 46.4757 52.5019 46.7364 52.5019 47.0084C52.5019 49.6017 50.3914 51.7129 47.796 51.7157Z" fill="#003152"/>
<path d="M65.9524 37.7648C65.4002 31.524 62.5414 25.7345 57.9028 21.4646C53.2362 17.1695 47.1821 14.8032 40.8506 14.8032C26.9544 14.8032 15.648 26.113 15.648 40.0133C15.648 44.6785 16.9344 49.2232 19.37 53.1819L13.9382 65.2094L31.3295 63.3562C34.3538 64.5954 37.5545 65.2234 40.8478 65.2234C41.7139 65.2234 42.6024 65.1786 43.4937 65.086C44.2784 65.0019 45.0716 64.8786 45.8508 64.7216C57.488 62.3693 65.9832 52.038 66.0505 40.1479V40.0133C66.0505 39.2563 66.0169 38.4994 65.9496 37.7648H65.9524ZM31.9994 58.077L22.3775 59.1031L25.2503 52.7361L24.6757 51.9651C24.6337 51.9091 24.5917 51.853 24.544 51.7885C22.0495 48.3429 20.7322 44.272 20.7322 40.0161C20.7322 28.9194 29.7572 19.8918 40.8506 19.8918C51.2434 19.8918 60.0525 28.0026 60.9018 38.3564C60.9466 38.9115 60.9718 39.4694 60.9718 40.0189C60.9718 40.1759 60.969 40.3301 60.9662 40.4955C60.7532 49.7783 54.2704 57.6621 45.2005 59.6695C44.5083 59.8237 43.7991 59.9414 43.0928 60.0171C42.3585 60.1012 41.6046 60.1433 40.8562 60.1433C38.1908 60.1433 35.601 59.6274 33.1542 58.6069C32.8823 58.4975 32.616 58.3798 32.3666 58.2592L32.0022 58.0826L31.9994 58.077Z" fill="#003152"/>
</svg>
