<svg width="80" height="81" viewBox="0 0 80 81" fill="none" xmlns="http://www.w3.org/2000/svg">
<path d="M40.0911 0.00012207H39.9089C17.8678 0.00012207 0 17.8732 0 39.9208V40.103C0 62.1506 17.8678 80.0237 39.9089 80.0237H40.0911C62.1322 80.0237 80 62.1506 80 40.103V39.9208C80 17.8732 62.1322 0.00012207 40.0911 0.00012207Z" fill="#FEFFEF"/>
<path d="M52.3785 16.2805H27.6243C20.7855 16.2805 15.2219 21.8457 15.2219 28.6865V51.3397C15.2219 58.1805 20.7855 63.7457 27.6243 63.7457H52.3785C59.2173 63.7457 64.7808 58.1805 64.7808 51.3397V28.6865C64.7808 21.8457 59.2173 16.2805 52.3785 16.2805ZM19.5971 28.6865C19.5971 24.2596 23.1987 20.657 27.6243 20.657H52.3785C56.8041 20.657 60.4057 24.2596 60.4057 28.6865V51.3397C60.4057 55.7666 56.8041 59.3693 52.3785 59.3693H27.6243C23.1987 59.3693 19.5971 55.7666 19.5971 51.3397V28.6865Z" fill="#003152"/>
<path d="M40.0015 51.5501C46.361 51.5501 51.5378 46.3746 51.5378 40.0104C51.5378 33.6462 46.3638 28.4707 40.0015 28.4707C33.6392 28.4707 28.4652 33.6462 28.4652 40.0104C28.4652 46.3746 33.6392 51.5501 40.0015 51.5501ZM40.0015 32.8499C43.9506 32.8499 47.1626 36.0629 47.1626 40.0132C47.1626 43.9635 43.9506 47.1764 40.0015 47.1764C36.0524 47.1764 32.8404 43.9635 32.8404 40.0132C32.8404 36.0629 36.0524 32.8499 40.0015 32.8499Z" fill="#003152"/>
<path d="M52.6056 30.3349C54.3181 30.3349 55.7139 28.9415 55.7139 27.2257C55.7139 25.5099 54.3209 24.1165 52.6056 24.1165C50.8903 24.1165 49.4973 25.5099 49.4973 27.2257C49.4973 28.9415 50.8903 30.3349 52.6056 30.3349Z" fill="#003152"/>
</svg>
