<svg width="249" height="83" viewBox="0 0 249 83" fill="none" xmlns="http://www.w3.org/2000/svg">
<path d="M35.9645 1.22954C21.8772 3.92357 10.209 12.1404 4.23253 23.59C-0.320937 32.2109 -1.31701 45.6811 1.8135 54.8408C5.08631 64.0005 14.9047 74.2379 24.8654 78.8177C42.2256 86.8998 66.7004 81.5118 77.7995 67.3681C80.3609 64.0005 80.6455 62.7882 79.3648 59.286L77.7995 55.1102L73.3884 61.4412C70.827 65.0782 65.7044 69.658 61.8624 71.9479C55.6014 75.4502 53.6092 75.989 44.0754 75.989C31.9802 75.989 26.0038 73.8338 18.3198 66.8293C-9.57017 41.1012 18.7467 -3.21562 55.4591 8.63813C69.831 13.3527 78.6533 25.3411 80.3609 42.3136C82.0684 59.8248 90.8908 72.352 106.401 79.0871C123.192 86.361 143.398 82.4547 156.062 69.3886C161.47 63.7311 161.754 63.1923 160.189 59.286L158.624 55.2449L154.497 61.0371C142.971 77.8748 118.638 81.6465 101.563 69.3886C93.5944 63.5964 89.4678 55.5143 87.4757 41.3706C86.3373 34.3662 84.2029 26.2841 82.4953 23.0512C74.0998 7.42582 53.7515 -2.13801 35.9645 1.22954Z" fill="#FEFFEF"/>
<path d="M115.508 1.22957C105.832 3.11539 97.721 7.82995 89.7524 16.1815C86.9065 19.2796 86.7642 20.0878 88.4717 23.8595L90.3216 28.0352L93.0252 23.3207C98.8593 12.9486 113.658 5.80942 126.892 6.88704C135.999 7.56054 143.113 10.7934 149.659 16.9897C156.631 23.5901 159.335 29.6516 160.758 41.9095C163.035 60.633 170.15 70.8703 185.66 78.1442C207.716 88.5163 233.329 80.2995 244.143 59.4207C247.416 53.0897 248.128 49.9916 248.128 41.6401C247.985 20.6266 234.325 5.27062 211.985 1.22957C198.04 -1.19506 180.253 4.86651 171.43 15.1038C167.588 19.549 167.446 20.2225 169.154 24.1289L171.003 28.1699L172.996 24.533C175.984 19.0102 180.395 14.9691 187.652 10.9281C196.19 6.07882 212.269 5.80942 221.234 10.2546C244.286 21.8389 248.412 51.0692 229.202 67.5028C213.834 80.7036 190.213 79.2219 176.98 64.27C171.43 58.0737 169.438 52.8203 167.873 40.6972C166.45 27.9005 163.889 22.1083 156.916 14.8344C149.944 7.29115 141.833 3.11539 131.587 1.36427C126.892 0.556059 122.765 -0.117449 122.338 0.0172482C121.911 0.151953 118.781 0.690763 115.508 1.22957Z" fill="#FEFFEF"/>
<path d="M35.5377 25.2065C22.0196 32.0762 22.3041 53.0897 36.1068 58.6125C38.8105 59.6901 43.2216 60.4983 46.0676 60.4983C52.044 60.4983 60.0126 56.9961 59.1588 54.7061C58.5896 53.0897 57.3089 53.0897 46.3522 54.7061C39.522 55.649 34.5416 52.6856 32.6917 46.2199C31.2688 41.3707 31.5534 39.4848 34.257 34.0968C36.9606 28.8434 46.4944 26.5535 52.7555 29.6516C55.0322 30.8639 56.1706 30.7292 57.8781 28.9781C59.8703 27.0923 59.5857 26.6882 54.8899 24.8024C48.0597 22.1083 41.3718 22.243 35.5377 25.2065Z" fill="#FEFFEF"/>
<path d="M109.389 41.64V59.1513H124.473C137.991 59.1513 139.414 58.8818 138.987 56.7266C138.56 54.8408 136.71 54.4367 127.461 54.0326L116.504 53.6285V49.0486V44.3341H127.176C136.852 44.3341 137.848 44.0647 137.848 41.64C137.848 39.2154 136.852 38.946 127.176 38.946H116.504V34.2314V29.6516L127.461 29.2475C136.71 28.8434 138.56 28.4393 138.987 26.4187C139.414 24.3982 137.991 24.1288 124.473 24.1288H109.389V41.64Z" fill="#FEFFEF"/>
<path d="M187.652 41.64V59.1513H191.209C194.482 59.1513 194.767 58.6124 194.767 53.0897C194.767 47.5669 195.051 47.0281 198.182 47.0281C200.316 47.0281 203.589 49.1833 207.431 53.0897C211.415 57.2654 214.404 59.1513 216.965 59.1513H220.665L215.542 53.4938C212.696 50.3956 210.419 47.5669 210.419 47.1628C210.419 46.624 211.842 45.6811 213.55 45.0076C220.949 41.9094 222.23 32.4803 215.827 26.8228C213.265 24.5329 210.846 24.1288 200.174 24.1288H187.652V41.64ZM210.135 30.3251C213.55 32.615 214.261 37.4643 211.558 40.0236C210.562 40.9665 206.435 41.64 202.308 41.64H194.767V34.9049V28.1699H200.886C204.158 28.1699 208.427 29.1128 210.135 30.3251Z" fill="#FEFFEF"/>
</svg>
