<svg width="100" height="100" viewBox="0 0 100 100" fill="none" xmlns="http://www.w3.org/2000/svg">
<circle cx="50" cy="50" r="45" fill="#003152" stroke="#FEFFEF" stroke-width="10"/>
<path d="M27.4373 76.9145V22.0345H57.5173C61.5706 22.0345 64.9306 22.7545 67.5973 24.1945C70.3173 25.6345 72.344 27.6612 73.6773 30.2745C75.0106 32.8345 75.6773 35.7945 75.6773 39.1545C75.6773 42.7279 74.8773 45.9012 73.2773 48.6745C71.6773 51.3945 69.3573 53.4745 66.3173 54.9145L77.5173 76.9145H64.3173L54.6373 56.9145H39.3573V76.9145H27.4373ZM39.3573 47.4745H55.9173C58.3173 47.4745 60.184 46.7545 61.5173 45.3145C62.8506 43.8212 63.5173 41.8212 63.5173 39.3145C63.5173 37.7145 63.224 36.3545 62.6373 35.2345C62.0506 34.0612 61.1973 33.1812 60.0773 32.5945C58.9573 32.0079 57.5706 31.7145 55.9173 31.7145H39.3573V47.4745Z" fill="#FEFFEF"/>
</svg>
