<svg width="80" height="80" viewBox="0 0 80 80" fill="none" xmlns="http://www.w3.org/2000/svg">
<circle cx="40" cy="40" r="40" fill="#FEFFEF"/>
<g clip-path="url(#clip0_95_19)">
<path d="M64.9042 26.5455L47.3667 44.083C45.4112 46.0335 42.7619 47.1289 40 47.1289C37.238 47.1289 34.5888 46.0335 32.6333 44.083L15.0958 26.5455C15.0667 26.8746 15 27.1726 15 27.4996V52.4996C15.0033 55.2613 16.1018 57.9089 18.0546 59.8617C20.0074 61.8145 22.655 62.913 25.4167 62.9163H54.5833C57.345 62.913 59.9926 61.8145 61.9454 59.8617C63.8981 57.9089 64.9967 55.2613 65 52.4996V27.4996C65 27.1726 64.9333 26.8746 64.9042 26.5455Z" fill="#003152"/>
<path d="M44.4209 41.1372L63.4501 22.1059C62.5283 20.5774 61.2281 19.3123 59.675 18.4324C58.122 17.5526 56.3684 17.0879 54.5834 17.083H25.4168C23.6318 17.0879 21.8782 17.5526 20.3252 18.4324C18.7721 19.3123 17.4719 20.5774 16.5501 22.1059L35.5793 41.1372C36.7534 42.3066 38.343 42.9631 40.0001 42.9631C41.6572 42.9631 43.2468 42.3066 44.4209 41.1372V41.1372Z" fill="#003152"/>
</g>
<defs>
<clipPath id="clip0_95_19">
<rect width="50" height="50" fill="white" transform="translate(15 15)"/>
</clipPath>
</defs>
</svg>
